# xmcd
#
# Track frame offsets: 
#        150
#        11856
#        23965
#        35894
#        47117
#        57904
#        71214
#        81194
#        92156
#        106255
#        117435
#        130658
#        142484
#        155697
#        167896
#        178748
#        191450
#        202603
#        213623
#        224799
#
# Disc length: 3143 seconds
#
# Revision: 2
# Processed by: cddbd v1.5.2PL0 Copyright (c) Steve Scherf et al.
# Submitted via: ExactAudioCopyFreeDBPlugin 1.0
#
DISCID=3b0c4514
DTITLE=Patti LaBelle - Patti LaBelle and The Bluebelles:  The Complete
DTITLE=Atlantic Sides Plus
DYEAR=2014
DGENRE=Rhythm and Blues
TTITLE0=Always Something There to Remind Me
TTITLE1=I Don't Want to Go on Without You
TTITLE2=Take Me for a Little While
TTITLE3=Tender Words
TTITLE4=Dreamer
TTITLE5=Oh My Love
TTITLE6=I Need Your Love
TTITLE7=He's My Man
TTITLE8=Wonderful
TTITLE9=How You Can Throw My Love Away (unreleased)
TTITLE10=Dance to the Rhythm of Love
TTITLE11=Pride's No Match for Love
TTITLE12=He's Gone
TTITLE13=(1-2-3-4-5-6-7) Count the Days
TTITLE14=Forget It (unreleased)
TTITLE15=Never for Me (unreleased)
TTITLE16=Loving Rules
TTITLE17=Suffer
TTITLE18=When Joe Touches Me (unreleased)
TTITLE19=Trustin' in You
EXTD=
EXTT0=
EXTT1=
EXTT2=
EXTT3=
EXTT4=
EXTT5=
EXTT6=
EXTT7=
EXTT8=
EXTT9=
EXTT10=
EXTT11=
EXTT12=
EXTT13=
EXTT14=
EXTT15=
EXTT16=
EXTT17=
EXTT18=
EXTT19=
PLAYORDER=
